<?xml version="1.0" encoding="utf-8"?>
<!-- Generator: Adobe Illustrator 22.0.1, SVG Export Plug-In . SVG Version: 6.00 Build 0)  -->
<svg version="1.1" id="Lager_1" xmlns="http://www.w3.org/2000/svg" xmlns:xlink="http://www.w3.org/1999/xlink" x="0px" y="0px"
	 viewBox="0 0 1050 450" style="enable-background:new 0 0 1050 450;" xml:space="preserve">
<style type="text/css">
	.st0{fill:#E30613;}
</style>
<g>
	<polygon class="st0" points="238.3,168.5 238.3,58.6 128.4,58.6 128.4,168.5 18.6,168.5 18.6,278.3 128.4,278.3 128.4,278.3 
		128.4,388.1 238.3,388.1 238.3,278.3 238.3,278.3 348.1,278.3 348.1,168.5 238.3,168.5 	"/>
	<path d="M793.8,255.9c-8,0-14.1-6.2-14.1-14.3c0-8.5,6.2-14.8,14.6-14.8c8,0,14.2,6.3,14.2,14.7C808.5,249.6,802,255.9,793.8,255.9
		L793.8,255.9z M808.2,213.4v7.1c-5.6-5.8-11.2-8.4-18.5-8.4c-15.5,0-27.4,12.8-27.4,29.4c0,16.6,11.7,28.9,27.5,28.9
		c7.6,0,12.4-2,18.4-7.9v6.6h16.6v-55.8H808.2L808.2,213.4z"/>
	<polygon points="761,213.4 740.3,213.4 721.4,234.9 721.4,178.2 704.8,178.2 704.8,269.2 721.4,269.2 721.4,245 741.6,269.2 
		762.5,269.2 736.9,239.9 761,213.4 	"/>
	<path d="M694.5,224.8c-3.7-8.6-9.8-12.7-19-12.7c-11.8,0-20.4,7.7-20.4,18.1c0,8.2,4.4,13.2,15.2,16.9c7.9,2.5,9,3.3,9,6.3
		c0,2.5-1.9,4.4-4.6,4.4c-3.4,0-5.8-1.9-7.9-6.2l-13.4,4.4c4.1,10.3,10.1,14.3,21.1,14.3c12.6,0,21.2-7.5,21.2-18.4
		c0-4.9-2.2-9.4-5.8-12c-2.7-1.9-4.1-2.5-10.9-4.8c-5.8-2-7.9-3.5-7.9-6.2c0-2.7,2.2-4.8,4.7-4.8c2.5,0,4.1,1.4,5.7,4.8L694.5,224.8
		L694.5,224.8z"/>
	<path d="M606.7,213.4h-16.6v55.8h16.6V239c0-4.1,0.8-6.3,2.5-8.4c2-2.4,5.5-3.9,9-3.9c6.5,0,9.4,3.8,9.4,12.4v30.1h16.6v-31.7
		c0-7.2-0.6-11.7-2.2-15.3c-2.5-6.2-9.3-10-17.5-10c-7.4,0-12.3,2.3-17.9,8.4V213.4L606.7,213.4z"/>
	<path d="M552.3,224.8c6,0,9.6,2.9,11.4,9.1h-23.1C542.7,227.8,546.4,224.8,552.3,224.8L552.3,224.8z M554.4,257.2
		c-7.4,0-12.2-4.4-13.8-12.3h40.2c-0.1-20.7-10.4-32.7-27.9-32.7c-16.6,0-28,11.7-28,28.5c0,17.6,12,29.8,29.5,29.8
		c11.2,0,19.3-4.7,25.4-14.5l-11.7-7.4C563.9,254.6,559.8,257.2,554.4,257.2L554.4,257.2z"/>
	<polygon points="524.4,213.4 506.8,213.4 492.2,245.9 477.6,213.4 459.5,213.4 484.7,269.2 499,269.2 524.4,213.4 	"/>
	<path d="M457.3,192.5c-7.1-6.6-13.6-9.3-22.6-9.3c-15.2,0-26.4,10.9-26.4,26c0,10.1,4.9,17.4,14.6,21.7c9.3,4.1,9.3,4.1,11.7,5.5
		c4.6,2.4,6.5,5.2,6.5,9.4c0,5.5-4.1,9.5-9.5,9.5c-5.1,0-9.5-2.4-14.8-7.9l-10.3,13.1c7.1,7.1,14.5,10.1,24.4,10.1
		c17.2,0,28.7-10.4,28.7-26.1c0-7.2-2.5-13.2-7.6-17.6c-3-2.8-6-4.3-12.4-6.7c-10.7-3.9-13.8-6.7-13.8-12c0-5.2,4.2-9.5,9.4-9.5
		c4.7,0,8.2,2.3,11.7,7.4L457.3,192.5L457.3,192.5z"/>
	<polygon points="1016.7,315.6 1000.1,315.6 1000.1,332.3 994.5,332.3 994.5,345.8 1000.1,345.8 1000.1,388.1 1016.7,388.1 
		1016.7,345.8 1026.6,345.8 1026.6,332.3 1016.7,332.3 1016.7,315.6 	"/>
	<path d="M960.6,343.8c6,0,9.6,2.9,11.4,9.1H949C951,346.7,954.7,343.8,960.6,343.8L960.6,343.8z M962.7,376.1
		c-7.4,0-12.2-4.4-13.8-12.3H989c-0.1-20.7-10.4-32.7-27.9-32.7c-16.6,0-28,11.7-28,28.5c0,17.6,12,29.8,29.6,29.8
		c11.2,0,19.3-4.7,25.4-14.5l-11.7-7.4C972.2,373.6,968.1,376.1,962.7,376.1L962.7,376.1z"/>
	<path d="M925.9,343.8c-3.7-8.6-9.8-12.7-19-12.7c-11.8,0-20.4,7.7-20.4,18.1c0,8.2,4.4,13.2,15.2,16.9c7.9,2.5,9,3.3,9,6.3
		c0,2.5-1.9,4.4-4.6,4.4c-3.4,0-5.8-1.9-7.9-6.2l-13.4,4.4c4.1,10.3,10.1,14.3,21.1,14.3c12.6,0,21.2-7.5,21.2-18.4
		c0-4.9-2.2-9.4-5.8-12c-2.7-1.9-4.1-2.5-10.9-4.8c-5.8-2-7.9-3.6-7.9-6.2c0-2.7,2.2-4.8,4.7-4.8c2.5,0,4.1,1.4,5.7,4.8L925.9,343.8
		L925.9,343.8z"/>
	<path d="M880.1,331.1c-7.9,1-14,4.2-18.4,9.8v-8.5h-16.6v55.8h16.6v-24.3c0-4.6,0.6-7.7,2.2-10.4c2-3.6,5.8-5.8,9.8-5.8
		c2.2,0,3.6,0.5,6.5,1.9V331.1L880.1,331.1z"/>
	<path d="M805.2,374.8c-7.9,0-13.7-6.2-13.7-14.6c0-8.2,5.8-14.6,13.6-14.6c7.6,0,13.3,6.3,13.3,14.7
		C818.4,368.5,812.6,374.8,805.2,374.8L805.2,374.8z M805.1,331.1c-17.8,0-30.9,12.6-30.9,29.3c0,16.7,12.9,29,30.6,29
		c17.9,0,31.1-12.2,31.1-28.7C835.8,343.6,822.7,331.1,805.1,331.1L805.1,331.1z"/>
	<polygon points="774.1,303.6 752.9,303.6 724.2,340.2 724.2,303.6 706.7,303.6 706.7,388.1 724.2,388.1 724.2,350.2 754.9,388.1 
		776.9,388.1 741,344.6 774.1,303.6 	"/>
	<path d="M643.5,374.8c-8,0-14.1-6.2-14.1-14.3c0-8.5,6.2-14.8,14.6-14.8c8,0,14.2,6.3,14.2,14.7
		C658.2,368.5,651.8,374.8,643.5,374.8L643.5,374.8z M658,332.3v7.1c-5.6-5.8-11.2-8.4-18.5-8.4c-15.5,0-27.4,12.8-27.4,29.4
		s11.7,28.9,27.5,28.9c7.6,0,12.4-2,18.4-7.9v6.6h16.6v-55.8H658L658,332.3z"/>
	<path d="M572.7,374.8c-8.4,0-14.5-6.2-14.5-14.7c0-8.4,6.1-14.5,14.5-14.5c8.2,0,14.6,6.3,14.6,14.7
		C587.2,368.5,580.8,374.8,572.7,374.8L572.7,374.8z M585.8,297.1v41.2c-5.7-5.1-10.9-7.2-17.8-7.2c-15.2,0-27.3,12.8-27.3,29.2
		c0,16.6,12,29.2,27.9,29.2c6.7,0,11.4-1.8,17.1-6.5v5.1h16.6v-90.9H585.8L585.8,297.1z"/>
	<path d="M516.3,304.7c-4.9,0-9.1,4.1-9.1,9c0,5.2,4.1,9.3,9.1,9.3c5.1,0,9.1-4.1,9.1-9.1C525.5,308.8,521.4,304.7,516.3,304.7"/>
	<path d="M490,304.7c-4.9,0-9.1,4.1-9.1,9c0,5.2,4.1,9.3,9.1,9.3s9.1-4.1,9.1-9.1C499.1,308.8,495,304.7,490,304.7"/>
	<path d="M503.4,374.8c-7.9,0-13.7-6.2-13.7-14.6c0-8.2,5.8-14.6,13.6-14.6c7.6,0,13.3,6.3,13.3,14.7
		C516.6,368.5,510.8,374.8,503.4,374.8L503.4,374.8z M503.3,331.1c-17.8,0-30.9,12.6-30.9,29.3c0,16.7,12.9,29,30.6,29
		c17.9,0,31.1-12.2,31.1-28.7C534,343.6,520.9,331.1,503.3,331.1L503.3,331.1z"/>
	<path d="M441.7,339.7c-2.3,1.4-5.3,1.9-12.3,1.9h-2.5v-24h3.9c11.7,0,15.9,3.2,15.9,12C446.6,334.2,445,337.8,441.7,339.7
		L441.7,339.7z M445.7,353c13.3-3,19.3-10.7,19.3-24.6c0-8.4-2.5-14.7-7.7-19c-5.3-4.6-12.3-5.8-30.9-5.8h-17v84.6h17.5v-34l23.5,34
		h21.6L445.7,353L445.7,353z"/>
</g>
</svg>
